<svg xmlns="http://www.w3.org/2000/svg" version="1.1" xmlns:xlink="http://www.w3.org/1999/xlink" xmlns:svgjs="http://svgjs.dev/svgjs" width="2000" height="1252" viewBox="0 0 2000 1252"><g transform="matrix(1,0,0,1,-1.2121212121212466,246.18224079504716)"><svg viewBox="0 0 396 248" data-background-color="#13472e" preserveAspectRatio="xMidYMid meet" height="1252" width="2000" xmlns="http://www.w3.org/2000/svg" xmlns:xlink="http://www.w3.org/1999/xlink"><g id="tight-bounds" transform="matrix(1,0,0,1,0.2400000000000091,0.4000000000000057)"><svg viewBox="0 0 395.52 247.2" height="247.2" width="395.52"><g><svg></svg></g><g><svg viewBox="0 0 395.52 247.2" height="247.2" width="395.52"><g transform="matrix(1,0,0,1,75.54432000000001,67.04182288682513)"><svg viewBox="0 0 244.43135999999996 113.11635422634973" height="113.11635422634973" width="244.43135999999996"><g><svg viewBox="0 0 244.43135999999996 113.11635422634973" height="113.11635422634973" width="244.43135999999996"><g><svg viewBox="0 0 244.43135999999996 113.11635422634973" height="113.11635422634973" width="244.43135999999996"><g><svg viewBox="0 0 244.43135999999996 113.11635422634973" height="113.11635422634973" width="244.43135999999996"><g id="textblocktransform"><svg viewBox="0 0 244.43135999999996 113.11635422634973" height="113.11635422634973" width="244.43135999999996" id="textblock"><g><svg viewBox="0 0 244.43135999999996 113.11635422634973" height="113.11635422634973" width="244.43135999999996"><g transform="matrix(1,0,0,1,0,0)"><svg width="244.43135999999996" viewBox="0.99444455556 -35.25 79.41180544443999 36.75" height="113.11635422634973" data-palette-color="#92b19f"><path d="M24.7-13.25L32.85-34 32.85-35 35.85-35Q37.3-35 39.3-35.1 41.3-35.2 42.7-35.25L42.7-35.25Q42.85-34.3 42.6-33.5L42.6-33.5Q41.5-33.3 40.5-33.1 39.5-32.9 38.6-32.5L38.6-32.5 41.1-2.5 44.95-1.5Q45.1-0.55 44.7 0.25L44.7 0.25Q43.35 0.15 41.68 0.08 40 0 38.6 0L38.6 0Q37.2 0 35.18 0.08 33.15 0.15 31.75 0.25L31.75 0.25Q31.6-0.7 31.85-1.5L31.85-1.5Q32.95-1.7 34-1.85 35.05-2 35.85-2.5L35.85-2.5 33.75-24.4Q33.7-25.1 33.68-25.8 33.65-26.5 33.65-27.2L33.65-27.2Q33.65-27.75 33.65-28.35 33.65-28.95 33.7-29.5L33.7-29.5 33.55-29.5Q33.2-28.25 32.83-26.98 32.45-25.7 31.95-24.4L31.95-24.4 22.9-1.55Q21.95-1 21.1-1.05L21.1-1.05 11.25-24.4Q10.8-25.55 10.4-26.83 10-28.1 9.6-29.5L9.6-29.5 9.45-29.5 9.3-24.35 8.05-2.45 11.9-1.45Q12.05-0.5 11.65 0.3L11.65 0.3Q10.3 0.2 9.05 0.1 7.8 0 6.4 0L6.4 0Q5 0 3.73 0.08 2.45 0.15 1.05 0.25L1.05 0.25Q0.9-0.7 1.15-1.5L1.15-1.5Q2.15-1.65 3.13-1.9 4.1-2.15 5.05-2.5L5.05-2.5 7.05-32.5 3.2-33.5Q3.05-34.45 3.45-35.25L3.45-35.25Q4.8-35.2 6.48-35.1 8.15-35 9.55-35L9.55-35 12.8-35 12.8-34 20.95-13.25Q21.6-11.7 22-10.3 22.4-8.9 22.75-7.35L22.75-7.35 22.85-7.35Q23.25-8.95 23.7-10.38 24.15-11.8 24.7-13.25L24.7-13.25ZM76.15-32.5L64.15 1Q63.3 1.5 62.35 1.5L62.35 1.5 49-32.5 45.15-33.5Q45-34.45 45.4-35.25L45.4-35.25Q46.3-35.2 47.55-35.15 48.8-35.1 50.07-35.05 51.35-35 52.25-35L52.25-35Q53.7-35 55.7-35.1 57.7-35.2 59.1-35.25L59.1-35.25Q59.25-34.3 59-33.5L59-33.5Q57.95-33.35 56.97-33.13 56-32.9 55-32.5L55-32.5 62.25-13.1Q63-11.05 63.52-9.33 64.05-7.6 64.35-5.85L64.35-5.85 64.45-5.85Q65-7.65 65.57-9.58 66.15-11.5 66.75-13.35L66.75-13.35 73.4-32.5 69.55-33.5Q69.4-34.45 69.8-35.25L69.8-35.25Q71.15-35.2 72.35-35.1 73.55-35 74.95-35L74.95-35Q76.4-35 77.67-35.1 78.95-35.2 80.35-35.25L80.35-35.25Q80.5-34.3 80.25-33.5L80.25-33.5Q79.2-33.35 78.1-33.13 77-32.9 76.15-32.5L76.15-32.5Z" opacity="1" transform="matrix(1,0,0,1,0,0)" fill="#92b19f" class="wordmark-text-0" data-fill-palette-color="primary" id="text-0"></path></svg></g></svg></g></svg></g></svg></g><g></g></svg></g></svg></g></svg></g><g><path d="M108.295 40.338A122.216 122.216 0 0 1 287.225 40.338L277.025 40.338A112.015 112.015 0 0 0 118.495 40.338L108.295 40.338M108.295 206.862A122.216 122.216 0 0 0 287.225 206.862L277.025 206.862A112.015 112.015 0 0 1 118.495 206.862L108.295 206.862" fill="#92b19f" stroke="transparent" data-fill-palette-color="tertiary"></path></g></svg></g><defs></defs></svg><rect width="395.52" height="247.2" fill="none" stroke="none" visibility="hidden"></rect></g></svg></g></svg>